#!OML:ASF F:\VICON\USERDATA\INSTALL\rory3\rory3.ASF
:FULLY-SPECIFIED
:DEGREES
412
root 0.382294 17.6916 48.1623 -2.40432 0.609613 -1.837
lowerback 9.94969 -2.24077 -0.0284206
upperback 0.115597 -2.82103 2.98155
thorax -5.30758 -1.35363 3.53975
lowerneck -13.4662 -2.04073 -3.74644
upperneck 21.7643 -2.05848 0.285807
head 9.09886 -1.24836 0.482171
rclavicle 6.48535e-015 -1.35174e-014
rhumerus -42.1278 -32.4105 -64.9417
rradius 16.7921
rwrist 18.1141
rhand -17.7152 22.8877
rfingers 7.12502
rthumb 8.54518 -6.91935
lclavicle 6.48535e-015 -1.35174e-014
lhumerus -23.9978 -2.18013 82.1799
lradius 35.1908
lwrist 9.5541
lhand -31.5058 17.4674
lfingers 7.12502
lthumb -4.77154 47.3937
rfemur -25.7624 3.78854 25.0816
rtibia 35.2953
rfoot -5.68806 -3.80374
rtoes 11.6551
lfemur 7.91411 -4.40856 -20.4844
ltibia 44.8409
lfoot 12.7148 -19.3809
ltoes -11.0107
413
root 0.340619 17.7156 48.3555 -2.24342 0.432002 -2.04089
lowerback 9.75363 -2.15907 -0.243063
upperback 0.0919988 -2.73281 3.11585
thorax -5.2109 -1.30472 3.78038
lowerneck -13.7055 -2.03799 -3.75458
upperneck 22.0747 -2.04483 0.296765
head 9.25114 -1.24385 0.48577
rclavicle 1.81143e-014 -1.35174e-014
rhumerus -41.6633 -31.9598 -65.502
rradius 16.8108
rwrist 17.6946
rhand -17.8048 22.903
rfingers 7.12502
rthumb 8.45867 -6.90756
lclavicle 1.81143e-014 -1.35174e-014
lhumerus -24.1477 -2.23088 82.3572
lradius 34.7046
lwrist 9.36466
lhand -32.4769 16.926
lfingers 7.12502
lthumb -5.70918 46.8291
rfemur -25.2703 4.53878 25.5272
rtibia 35.1415
rfoot -5.8547 -4.37617
rtoes 11.0568
lfemur 6.13316 -4.10957 -19.8544
ltibia 47.3339
lfoot 15.7235 -20.5125
ltoes -5.63015
414
root 0.315609 17.7206 48.5412 -2.30779 0.277346 -2.47301
lowerback 9.97045 -2.04981 0.0874101
upperback -0.00684373 -2.53703 3.22313
thorax -5.45907 -1.21058 3.69483
lowerneck -13.854 -2.38164 -4.24866
upperneck 22.2517 -2.52804 0.826121
head 9.36615 -1.45353 0.689426
rclavicle 7.30534e-015 2.70347e-014
rhumerus -41.5977 -31.5818 -65.851
rradius 17.127
rwrist 17.1562
rhand -17.5683 22.7927
rfingers 7.12502
rthumb 8.68698 -7.00853
lclavicle 7.30534e-015 2.70347e-014
lhumerus -24.5101 -2.48715 82.6323
lradius 34.1937
lwrist 9.00093
lhand -32.3129 17.8086
lfingers 7.12502
lthumb -5.55088 47.7159
rfemur -24.3887 5.07477 26.1897
rtibia 35.0179
rfoot -6.15141 -4.77743
rtoes 11.3564
lfemur 4.73445 -3.79962 -19.078
ltibia 49.7346
lfoot 18.2994 -21.4063
ltoes -0.267369
415
root 0.303091 17.7422 48.7251 -2.48426 0.197255 -2.91759
lowerback 10.359 -1.97323 0.652409
upperback -0.118779 -2.35343 3.25108
thorax -5.82885 -1.12942 3.40242
lowerneck -13.4937 -2.31615 -3.86146
upperneck 22.1987 -2.45475 0.44857
head 9.26736 -1.4291 0.507974
rclavicle 2.18663e-015 -7.95139e-016
rhumerus -41.5647 -30.9093 -66.4476
rradius 17.6453
rwrist 16.0827
rhand -17.4134 22.4287
rfingers 7.12502
rthumb 8.83639 -7.36626
lclavicle 2.18663e-015 -7.95139e-016
lhumerus -25.0533 -2.65995 82.8631
lradius 33.9451
lwrist 8.55392
lhand -30.5423 19.402
lfingers 7.12502
lthumb -3.84115 49.3472
rfemur -23.4486 5.30219 26.8436
rtibia 34.9009
rfoot -6.50554 -5.06751
rtoes 11.8711
lfemur 3.43198 -3.51814 -18.355
ltibia 52.0497
lfoot 19.7988 -21.9419
ltoes 2.613
416
root 0.279052 17.7731 48.9149 -2.62466 0.0536611 -3.6324
lowerback 10.7029 -1.91825 1.27625
upperback -0.2639 -2.17675 3.42367
thorax -6.20276 -1.05384 3.22792
lowerneck -13.1822 -2.57131 -4.43756
upperneck 21.8456 -2.89143 1.29573
head 9.11927 -1.58768 0.8462
rclavicle 8.79622e-015 -7.95139e-016
rhumerus -41.4419 -30.0014 -67.0149
rradius 17.8462
rwrist 15.0584
rhand -17.6114 22.8939
rfingers 7.12502
rthumb 8.64534 -6.90909
lclavicle 8.79622e-015 -7.95139e-016
lhumerus -25.6387 -2.7591 83.0793
lradius 33.6404
lwrist 8.25697
lhand -29.2906 20.0175
lfingers 7.12502
lthumb -2.63234 49.981
rfemur -22.5033 5.79284 27.8216
rtibia 34.7584
rfoot -6.9471 -5.63904
rtoes 12.3984
lfemur 1.94737 -3.20478 -17.2577
ltibia 54.3399
lfoot 20.6014 -21.572
ltoes 5.90887
417
root 0.276256 17.8003 49.0937 -2.59504 0.249218 -3.5075
lowerback 10.282 -1.96636 1.2339
upperback 0.063011 -2.2769 3.33452
thorax -5.61753 -1.10969 3.14083
lowerneck -13.2497 -2.04531 -3.2649
upperneck 21.8333 -2.12606 0.0349571
head 9.07409 -1.26802 0.310175
rclavicle -1.30452e-014 1.66979e-014
rhumerus -40.3647 -29.6251 -67.9847
rradius 17.9999
rwrist 14.5811
rhand -18.0548 23.429
rfingers 7.12502
rthumb 8.21747 -6.39124
lclavicle -1.30452e-014 1.66979e-014
lhumerus -25.2583 -2.51027 83.1367
lradius 33.1589
lwrist 7.56345
lhand -29.9403 20.6472
lfingers 7.12502
lthumb -3.2598 50.602
rfemur -21.7899 5.60208 27.7884
rtibia 34.684
rfoot -7.60267 -5.85271
rtoes 12.0838
lfemur 0.342307 -3.17405 -17.3004
ltibia 56.4385
lfoot 20.1196 -20.8878
ltoes 4.94296
418
root 0.267243 17.8162 49.2666 -2.64242 0.207268 -3.483
lowerback 10.3968 -1.91604 1.24617
upperback 0.0845999 -2.21002 3.24828
thorax -5.66592 -1.07776 3.03766
lowerneck -13.5117 -2.33676 -3.62273
upperneck 21.9739 -2.56992 0.586412
head 9.19238 -1.4457 0.502262
rclavicle -3.75206e-015 4.21423e-014
rhumerus -39.8311 -29.0355 -68.7633
rradius 18.2985
rwrist 14.1053
rhand -18.1609 23.3386
rfingers 7.12502
rthumb 8.11505 -6.48559
lclavicle -3.75206e-015 4.21423e-014
lhumerus -25.4295 -2.46893 83.1811
lradius 32.7715
lwrist 6.91472
lhand -30.4809 21.794
lfingers 7.12502
lthumb -3.78183 51.7402
rfemur -21.0341 5.77913 27.8958
rtibia 34.5363
rfoot -8.11963 -6.16559
rtoes 11.6048
lfemur -1.0506 -2.92376 -17.1875
ltibia 58.4726
lfoot 18.2912 -20.1915
ltoes 1.29842
419
root 0.247536 17.8431 49.4441 -2.70697 0.0946591 -3.50453
lowerback 10.9878 -1.80022 1.24005
upperback -0.282067 -2.02797 3.19387
thorax -6.39604 -0.98123 2.99513
lowerneck -13.3884 -2.6885 -4.10469
upperneck 22.2009 -3.09444 1.16157
head 9.27882 -1.67042 0.717204
rclavicle -3.00662e-015 5.1684e-015
rhumerus -39.9543 -28.1514 -69.1916
rradius 18.5184
rwrist 13.5038
rhand -18.0995 23.5628
rfingers 7.12502
rthumb 8.17428 -6.25909
lclavicle -3.00662e-015 5.1684e-015
lhumerus -26.2753 -2.50564 83.3769
lradius 32.3315
lwrist 6.54632
lhand -29.9928 21.165
lfingers 7.12502
lthumb -3.31051 51.119
rfemur -20.3649 6.28193 28.0733
rtibia 34.4557
rfoot -8.61174 -6.66011
rtoes 11.6924
lfemur -2.48929 -2.47475 -16.9293
ltibia 60.3371
lfoot 16.1969 -18.7949
ltoes 0.836355
420
root 0.228965 17.8576 49.6231 -2.79677 0.0264905 -3.91518
lowerback 10.5153 -1.74578 1.52451
upperback 0.182259 -1.9456 3.29889
thorax -5.64824 -0.954667 2.89627
lowerneck -13.6816 -2.59944 -3.97134
upperneck 21.6705 -3.01665 1.31623
head 9.14635 -1.6009 0.755347
rclavicle -2.82771e-014 9.93923e-015
rhumerus -38.6891 -27.6974 -70.2382
rradius 18.7559
rwrist 12.9181
rhand -18.0204 24.016
rfingers 7.12502
rthumb 8.25067 -5.80287
lclavicle -2.82771e-014 9.93923e-015
lhumerus -25.7533 -2.12649 83.4744
lradius 31.6387
lwrist 6.05547
lhand -28.9029 20.2109
lfingers 7.12502
lthumb -2.25791 50.1787
rfemur -19.4288 6.59646 28.7045
rtibia 34.328
rfoot -9.29721 -7.12317
rtoes 10.6739
lfemur -4.021 -1.98952 -16.2386
ltibia 62.1806
lfoot 13.8063 -17.6036
ltoes 0.34187
421
root 0.230909 17.8808 49.7955 -2.79279 0.134508 -4.13153
lowerback 9.8258 -1.71935 1.95921
upperback 0.698883 -1.9084 3.2526
thorax -4.73622 -0.952257 2.55298
lowerneck -14.1427 -2.67684 -3.69427
upperneck 21.814 -3.06628 0.87595
head 9.27165 -1.64694 0.546392
rclavicle 2.07481e-014 -2.66371e-014
rhumerus -37.4062 -27.4635 -71.2714
rradius 19.1272
rwrist 12.4849
rhand -17.9073 23.8551
rfingers 7.12502
rthumb 8.3598 -5.95943
lclavicle 2.07481e-014 -2.66371e-014
lhumerus -25.0857 -1.8917 83.5563
lradius 30.987
lwrist 5.48243
lhand -28.1898 19.8579
lfingers 7.12502
lthumb -1.5692 49.8319
rfemur -18.6762 6.43503 29.0011
rtibia 34.1485
rfoot -9.92925 -7.21261
rtoes 10.759
lfemur -5.46278 -1.67771 -15.9291
ltibia 63.7483
lfoot 11.7849 -16.3948
ltoes -1.86401
422
root 0.233916 17.9 49.9611 -2.72993 0.191621 -4.03778
lowerback 10.13 -1.62498 2.20463
upperback 0.385627 -1.73751 3.10025
thorax -5.25209 -0.873486 2.25211
lowerneck -13.4962 -2.85142 -4.19112
upperneck 21.5096 -3.3741 1.5419
head 9.0752 -1.76129 0.828687
rclavicle 2.01269e-015 -1.07344e-014
rhumerus -37.3341 -26.792 -71.6228
rradius 19.2829
rwrist 11.9959
rhand -18.0174 23.4837
rfingers 7.12502
rthumb 8.25359 -6.33512
lclavicle 2.01269e-015 -1.07344e-014
lhumerus -25.8378 -1.97929 83.7635
lradius 30.621
lwrist 5.17206
lhand -28.2487 19.6913
lfingers 7.12502
lthumb -1.62609 49.6649
rfemur -18.0241 6.20157 28.9635
rtibia 33.8979
rfoot -10.394 -7.19594
rtoes 11.7518
lfemur -6.88975 -1.45819 -16.0109
ltibia 65.0984
lfoot 10.3964 -15.1013
ltoes -2.71686
423
root 0.219008 17.9161 50.1356 -2.78519 -0.0543269 -4.14698
lowerback 10.1278 -1.43617 2.27561
upperback 0.37123 -1.47614 3.12833
thorax -5.27259 -0.746017 2.20403
lowerneck -13.0633 -2.84587 -4.30593
upperneck 21.334 -3.36808 1.59066
head 8.93747 -1.76436 0.871077
rclavicle 4.4975e-015 -1.86858e-014
rhumerus -36.8064 -25.9559 -72.1612
rradius 19.4316
rwrist 11.3077
rhand -17.9707 23.8666
rfingers 7.12502
rthumb 8.2986 -5.95039
lclavicle 4.4975e-015 -1.86858e-014
lhumerus -26.2906 -1.8173 83.9872
lradius 30.2235
lwrist 4.65072
lhand -28.2882 19.6847
lfingers 7.12502
lthumb -1.6643 49.6579
rfemur -17.1874 6.49207 29.2705
rtibia 33.6872
rfoot -10.7424 -7.45628
rtoes 11.2588
lfemur -8.21677 -0.97524 -15.7224
ltibia 66.2602
lfoot 8.88052 -14.3537
ltoes -3.58887
424
root 0.199383 17.9281 50.3101 -2.92191 -0.388161 -4.48684
lowerback 10.2202 -1.29038 2.42937
upperback 0.432407 -1.25801 3.21276
thorax -5.26617 -0.641179 2.17571
lowerneck -12.7725 -2.72938 -3.92099
upperneck 21.4327 -3.17774 1.03317
head 8.89519 -1.70523 0.643463
rclavicle -5.96354e-015 3.97569e-015
rhumerus -36.192 -25.0904 -72.8843
rradius 19.72
rwrist 10.7253
rhand -17.8218 24.1883
rfingers 7.12502
rthumb 8.44232 -5.62295
lclavicle -5.96354e-015 3.97569e-015
lhumerus -26.6026 -1.51067 84.0354
lradius 29.7438
lwrist 4.29849
lhand -27.9969 20.3358
lfingers 7.12502
lthumb -1.38288 50.3111
rfemur -16.2594 6.97288 29.8629
rtibia 33.4725
rfoot -11.0502 -7.80587
rtoes 10.6809
lfemur -9.47432 -0.315896 -15.1324
ltibia 67.2933
lfoot 6.36257 -14.1753
ltoes -8.75201
425
root 0.195007 17.9394 50.4793 -2.8445 -0.433649 -4.51732
lowerback 10.3043 -1.28562 2.4904
upperback 0.338681 -1.24143 3.1262
thorax -5.41543 -0.635723 2.05294
lowerneck -13.5733 -3.27952 -4.68449
upperneck 21.891 -3.98991 2.09297
head 9.2647 -2.03073 1.02252
rclavicle -3.35449e-015 2.82274e-014
rhumerus -35.4945 -24.5375 -73.5428
rradius 19.6148
rwrist 10.5365
rhand -17.7535 24.0932
rfingers 7.12502
rthumb 8.50825 -5.71537
lclavicle -3.35449e-015 2.82274e-014
lhumerus -26.9366 -1.31832 84.012
lradius 29.1476
lwrist 4.41021
lhand -28.2313 19.9318
lfingers 7.12502
lthumb -1.60931 49.9054
rfemur -15.5593 6.8997 29.9924
rtibia 33.2521
rfoot -11.5327 -7.81823
rtoes 10.9253
lfemur -10.9491 -0.00232164 -15.0685
ltibia 68.1384
lfoot 4.40856 -13.2463
ltoes -11.2001
